<?xml version="1.0" encoding="iso-8859-1"?>
<!-- Generator: Adobe Illustrator 19.0.0, SVG Export Plug-In . SVG Version: 6.00 Build 0)  -->
<svg xmlns="http://www.w3.org/2000/svg" xmlns:xlink="http://www.w3.org/1999/xlink" version="1.1" id="Capa_1" x="0px" y="0px" viewBox="0 0 512 512" style="enable-background:new 0 0 512 512;" xml:space="preserve" width="512px" height="512px">
<g>
	<g>
		<path d="M456.993,262.144l-89.935,24.099l-52.386-30.242l52.386-30.242l89.957,24.105c2.49,0.661,5.044,0.998,7.591,0.998    c13.245,0,24.892-8.946,28.322-21.754c2.027-7.567,0.984-15.471-2.935-22.257c-3.92-6.788-10.248-11.642-17.816-13.667    l-33.27-8.915l10.03-5.791c4.889-2.822,6.564-9.073,3.741-13.962c-2.823-4.887-9.07-6.563-13.962-3.741l-31.402,18.129    c-3.581,2.067-5.562,6.088-5.023,10.185c0.539,4.099,3.495,7.469,7.488,8.539l57.109,15.302c2.295,0.614,4.212,2.085,5.4,4.143    c1.189,2.058,1.506,4.453,0.891,6.745c-1.042,3.886-4.568,6.601-8.577,6.601c-0.776,0-1.564-0.105-2.321-0.306l-94.025-25.195    c-2.618-0.701-5.408-0.335-7.756,1.021l-71.385,41.212c-3.162,1.826-5.111,5.2-5.111,8.852c0,3.652,1.948,7.026,5.111,8.852    l71.385,41.212c2.35,1.356,5.141,1.722,7.756,1.021l94.031-25.196c4.732-1.271,9.619,1.554,10.891,6.283    c1.267,4.739-1.555,9.624-6.293,10.892l-57.106,15.301c-3.993,1.07-6.949,4.44-7.488,8.539c-0.54,4.099,1.442,8.119,5.023,10.185    l49.424,28.535c4.249,2.457,5.711,7.909,3.254,12.16c-1.58,2.74-4.536,4.442-7.714,4.442c-1.542,0-3.07-0.412-4.426-1.196    l-49.43-28.538c-3.579-2.067-8.052-1.774-11.333,0.743c-3.279,2.516-4.72,6.761-3.65,10.754l15.303,57.125    c0.616,2.29,0.302,4.681-0.884,6.737c-1.187,2.058-3.104,3.528-5.377,4.135c-4.855,1.287-9.673-1.655-10.913-6.278l-25.195-94.035    c-0.702-2.619-2.414-4.852-4.762-6.206l-71.385-41.212c-3.162-1.826-7.059-1.826-10.221,0c-3.162,1.826-5.111,5.2-5.111,8.852    v82.424c0,2.711,1.077,5.31,2.994,7.227l68.835,68.844c1.68,1.678,2.605,3.909,2.605,6.281s-0.925,4.603-2.61,6.284    c-1.681,1.682-3.913,2.607-6.284,2.607c-2.371,0-4.605-0.926-6.285-2.607l-41.804-41.805c-2.923-2.924-7.32-3.799-11.139-2.216    c-3.819,1.582-6.31,5.309-6.31,9.443v57.075c0,4.903-3.989,8.892-8.892,8.892c-4.903,0-8.892-3.989-8.892-8.892v-57.075    c0-4.133-2.491-7.861-6.31-9.443c-3.818-1.58-8.216-0.707-11.139,2.215l-41.804,41.805c-1.683,1.683-3.919,2.61-6.294,2.61    c-2.373,0-4.604-0.925-6.286-2.61c-1.678-1.678-2.602-3.91-2.602-6.284s0.924-4.607,2.602-6.285l68.84-68.839    c1.917-1.916,2.994-4.517,2.994-7.227v-82.424c0-3.652-1.948-7.026-5.111-8.852c-3.161-1.826-7.058-1.826-10.221,0l-71.385,41.212    c-2.348,1.355-4.061,3.588-4.762,6.206l-25.194,94.032c-1.043,3.882-4.569,6.594-8.578,6.594c-0.776,0-1.566-0.105-2.323-0.306    c-2.29-0.613-4.205-2.084-5.393-4.142c-1.189-2.059-1.505-4.454-0.89-6.747l15.3-57.116c1.07-3.993-0.371-8.238-3.651-10.755    c-3.279-2.516-7.753-2.811-11.332-0.742l-49.412,28.534c-1.382,0.796-2.876,1.2-4.442,1.2c-3.174,0-6.132-1.706-7.714-4.441    c-2.45-4.25-0.988-9.705,3.258-12.158l49.419-28.538c3.579-2.067,5.562-6.088,5.023-10.185c-0.54-4.099-3.496-7.469-7.488-8.539    l-57.113-15.304c-2.296-0.614-4.212-2.084-5.399-4.139c-1.187-2.054-1.5-4.449-0.882-6.75c0.614-2.294,2.085-4.211,4.141-5.399    c2.055-1.189,4.448-1.503,6.747-0.885l94.035,25.195c2.618,0.701,5.408,0.334,7.756-1.021l71.385-41.212    c3.162-1.826,5.111-5.2,5.111-8.852c0-3.651-1.947-7.026-5.111-8.852l-71.385-41.222c-2.349-1.356-5.139-1.724-7.757-1.022    l-94.013,25.199c-4.838,1.288-9.668-1.655-10.912-6.297c-0.615-2.29-0.301-4.683,0.885-6.738c1.188-2.057,3.104-3.527,5.403-4.143    l57.106-15.301c3.992-1.07,6.948-4.44,7.488-8.539c0.54-4.099-1.443-8.119-5.023-10.185L55.254,150.36    c-2.057-1.186-3.527-3.101-4.142-5.395c-0.615-2.295-0.299-4.689,0.889-6.75c2.448-4.245,7.9-5.704,12.149-3.255l49.419,28.538    c3.579,2.068,8.053,1.774,11.333-0.742c3.28-2.516,4.721-6.761,3.651-10.754l-15.3-57.103c-1.267-4.739,1.551-9.624,6.289-10.894    c4.731-1.271,9.621,1.553,10.894,6.286l25.195,94.035c0.702,2.619,2.414,4.852,4.762,6.206l71.385,41.212    c3.163,1.826,7.059,1.826,10.221,0c3.162-1.826,5.111-5.2,5.111-8.852v-82.434c0-2.711-1.077-5.311-2.994-7.228l-68.835-68.823    c-3.469-3.473-3.471-9.118-0.004-12.585c3.466-3.467,9.111-3.464,12.58,0l41.804,41.805c2.923,2.923,7.319,3.796,11.139,2.215    c3.82-1.582,6.31-5.309,6.31-9.443V29.335c0-4.903,3.989-8.892,8.892-8.892s8.892,3.989,8.892,8.892V86.4    c0,4.133,2.491,7.861,6.31,9.443c3.817,1.581,8.215,0.707,11.139-2.216l41.803-41.804c3.468-3.468,9.106-3.466,12.576,0.004    c1.68,1.678,2.605,3.909,2.605,6.282c0,2.376-0.927,4.611-2.61,6.294l-68.83,68.83c-1.916,1.916-2.994,4.516-2.994,7.227v82.434    c0,3.652,1.948,7.026,5.111,8.852c3.162,1.827,7.059,1.826,10.221,0l71.385-41.212c2.348-1.355,4.061-3.588,4.762-6.206    L381.57,90.29c0.614-2.296,2.084-4.212,4.139-5.399c2.055-1.187,4.451-1.499,6.751-0.882c2.296,0.614,4.213,2.084,5.399,4.139    c1.187,2.054,1.5,4.449,0.882,6.75l-15.301,57.106c-1.07,3.993,0.37,8.237,3.65,10.754c3.281,2.516,7.754,2.809,11.333,0.743    l49.429-28.537c2.058-1.187,4.45-1.5,6.746-0.887c2.294,0.615,4.209,2.085,5.395,4.142c2.82,4.891,9.066,6.57,13.96,3.749    c4.89-2.819,6.569-9.069,3.749-13.96c-3.915-6.791-10.242-11.648-17.813-13.677c-7.564-2.028-15.472-0.988-22.257,2.928    l-28.06,16.2l8.913-33.264c2.034-7.573,0.997-15.481-2.922-22.268c-3.918-6.786-10.245-11.639-17.809-13.663    c-7.574-2.034-15.481-0.995-22.267,2.923c-6.786,3.918-11.639,10.246-13.663,17.816l-24.1,89.945l-52.387,30.243v-60.497    l65.836-65.836c5.544-5.544,8.597-12.912,8.597-20.749c0-7.838-3.055-15.206-8.597-20.741c-11.435-11.435-30.043-11.436-41.481,0    l-24.355,24.356v-32.39C285.337,13.16,272.177,0,256.002,0c-16.175,0-29.335,13.16-29.335,29.335v32.389l-24.361-24.361    c-11.444-11.427-30.053-11.425-41.485,0.005c-11.431,11.431-11.433,30.042,0,41.491l65.845,65.836v60.497l-52.386-30.243    l-24.102-89.951c-4.196-15.626-20.315-24.923-35.933-20.735c-15.617,4.184-24.922,20.298-20.74,35.925l8.914,33.268    l-28.054-16.201c-14.021-8.082-31.997-3.26-40.072,10.748c-3.917,6.785-4.956,14.689-2.928,22.257    c2.029,7.572,6.886,13.898,13.671,17.809l28.052,16.2l-33.267,8.912c-7.573,2.026-13.902,6.881-17.821,13.671    c-3.918,6.789-4.955,14.694-2.923,22.255c3.432,12.807,15.078,21.753,28.322,21.753c2.54,0,5.09-0.335,7.603-1.003l89.944-24.11    l52.388,30.253l-52.388,30.243l-89.94-24.097c-7.572-2.033-15.48-0.993-22.269,2.928c-6.784,3.918-11.636,10.244-13.66,17.804    c-2.033,7.572-0.996,15.48,2.923,22.267c3.918,6.786,10.246,11.639,17.816,13.664l33.273,8.916l-28.054,16.2    c-14.001,8.087-18.82,26.063-10.736,40.083c5.23,9.043,14.969,14.66,25.416,14.66c5.123,0,10.188-1.359,14.657-3.936l28.05-16.198    l-8.916,33.28c-2.026,7.566-0.985,15.469,2.932,22.256c3.918,6.788,10.243,11.643,17.833,13.675    c2.49,0.66,5.043,0.996,7.587,0.996c13.242,0,24.888-8.939,28.322-21.743l24.1-89.945l52.386-30.244v60.487L160.82,433.14    c-5.539,5.54-8.59,12.905-8.59,20.741s3.05,15.201,8.585,20.735c5.54,5.548,12.907,8.603,20.746,8.603    c7.836,0,15.204-3.053,20.749-8.597l24.356-24.356v32.399c0,16.175,13.16,29.335,29.335,29.335s29.335-13.16,29.335-29.335    v-32.399l24.355,24.356c5.543,5.542,12.908,8.595,20.741,8.595c7.831,0,15.197-3.052,20.735-8.59    c5.547-5.539,8.602-12.906,8.602-20.744c0-7.838-3.055-15.205-8.597-20.74l-65.836-65.846V306.81l52.387,30.243l24.1,89.948    c3.432,12.8,15.079,21.74,28.322,21.74c2.537,0,5.087-0.335,7.598-1.001c7.574-2.026,13.904-6.882,17.823-13.672    c3.917-6.789,4.954-14.695,2.921-22.253l-8.916-33.283l28.054,16.197c4.455,2.577,9.522,3.939,14.654,3.939    c10.462,0,20.204-5.622,25.419-14.665c8.087-14.001,3.276-31.978-10.731-40.079l-28.059-16.2l33.267-8.914    c15.624-4.18,24.935-20.294,20.751-35.934C488.726,267.252,472.602,257.951,456.993,262.144z" fill="#933EC5"/>
	</g>
</g>
<g>
	<g>
		<path d="M467.072,147.952c-13.154,0-13.175,20.442,0,20.442C480.226,168.394,480.248,147.952,467.072,147.952z" fill="#933EC5"/>
	</g>
</g>
<g>
</g>
<g>
</g>
<g>
</g>
<g>
</g>
<g>
</g>
<g>
</g>
<g>
</g>
<g>
</g>
<g>
</g>
<g>
</g>
<g>
</g>
<g>
</g>
<g>
</g>
<g>
</g>
<g>
</g>
</svg>
